<?xml version="1.0"?>
<svg xmlns="http://www.w3.org/2000/svg" xmlns:xlink="http://www.w3.org/1999/xlink" version="1.1" id="Capa_1" x="0px" y="0px" viewBox="0 0 512 512" style="enable-background:new 0 0 512 512;" xml:space="preserve" width="512px" height="512px" class="hovered-paths"><g><circle style="fill:#F0EFEB" cx="256" cy="256" r="256" data-original="#F0EFEB" class=""/><g>
	<path style="fill:#FBFBFB" d="M356.458,307.851c49.093-49.094,117.291-92.568,150.83-141.176   c8.069-11.695,2.416-27.9-11.283-31.67c-17.763-4.888-46.893-9.839-92.019-9.839c-89.114,0-363.884,17.168-403.985-77.56   c0,0,23.764,102.809,197.537,111.72s164.092-2.917,217.614,7.426c50.284,9.718,29.678,40.844,8.142,62.38   C401.757,250.67,366.854,279.631,356.458,307.851z" data-original="#24C2F1" class="active-path" data-old_color="#24C2F1"/>
	<circle style="fill:#FBFBFB" cx="300.02" cy="374.69" r="35.641" data-original="#24C2F1" class="active-path" data-old_color="#24C2F1"/>
	<circle style="fill:#FBFBFB" cx="132.19" cy="374.69" r="35.641" data-original="#24C2F1" class="active-path" data-old_color="#24C2F1"/>
</g></g> </svg>
